<?xml version="1.0" encoding="iso-8859-1"?>
<!-- Uploaded to: SVG Repo, www.svgrepo.com, Generator: SVG Repo Mixer Tools -->
<svg fill="#000000" height="800px" width="800px" version="1.1" id="Layer_1" xmlns="http://www.w3.org/2000/svg" xmlns:xlink="http://www.w3.org/1999/xlink" 
	 viewBox="0 0 512 512" xml:space="preserve">
<g>
	<g>
		<g>
			<path d="M390.312,105.711c-0.273-0.358-6.878-8.866-15.394-17.587c-0.008-0.009-0.008-0.017-0.008-0.017
				c-8.806-9.02-16.29-14.737-22.895-17.664l-3.021,9.054c-0.896,2.202-17.067,39.97-50.756,39.97c-4.719,0-8.533-3.823-8.533-8.533
				s3.814-8.533,8.533-8.533c22.451,0,34.671-28.604,34.79-28.894l10.283-30.874c-2.313-4.983-5.359-10.052-9.574-14.899
				C317.744,9.327,291.445,0,255.571,0c-35.883,0-62.182,9.327-78.174,27.733c-6.357,7.322-10.231,15.155-12.57,22.4l12.817,22.434
				c0.171,0.307,0.324,0.623,0.461,0.939c0.12,0.273,12.51,28.894,34.799,28.894c4.71,0,8.533,3.823,8.533,8.533
				s-3.823,8.533-8.533,8.533c-31.94,0-48.137-33.929-50.313-38.835l-5.282-9.242c-6.281,3.413-12.902,9.225-20.215,16.717
				c0,0-0.009,0.009-0.009,0.017h-0.009c-8.508,8.73-15.112,17.229-15.386,17.587c-0.034,0.043-0.043,0.094-0.077,0.136
				c-0.145,0.188-0.307,0.393-0.367,0.478c-51.328,80.043-54.349,281.506-53.342,362.897c0,0.572,0.009,1.143,0.017,1.707
				c0,0.154,0,0.307,0.009,0.461c0.23,19.917,0.734,32.29,0.742,32.435C68.87,508.39,72.624,512,77.198,512h0.034h34.099h0.034
				c3.448,0,6.562-2.082,7.885-5.265l22.11-53.393c1.092,0.998,2.133,2.057,3.277,2.995v38.596c0,9.412,7.654,17.067,17.067,17.067
				h187.733c9.412,0,17.067-7.654,17.067-17.067v-37.956c1.425-1.152,2.773-2.398,4.139-3.635l22.11,53.393
				c1.323,3.183,4.429,5.265,7.885,5.265h34.133c1.143,0,2.236-0.222,3.234-0.64c0.614-0.247,1.118-0.691,1.655-1.075
				c0.324-0.239,0.725-0.384,1.016-0.666c0.64-0.614,1.118-1.374,1.544-2.176c0.085-0.154,0.23-0.256,0.299-0.418
				c0.247-0.538,0.299-1.169,0.427-1.758c0.111-0.486,0.324-0.93,0.35-1.442c0-0.051,0.06-1.69,0.154-4.437
				c0.017-0.555,0.034-1.101,0.051-1.749c0.017-0.418,0.026-0.828,0.043-1.28C444.959,449.203,449.542,198.007,390.312,105.711z
				 M105.631,494.933H85.51c-0.154-5.837-0.35-14.592-0.461-25.6h31.181L105.631,494.933z M125.249,304.23
				c0,3.746,0,7.467,0.009,11.324c0.06,37.325,0.691,79.36,2.253,126.618l-4.181,10.095H84.947
				c-0.154-85.658,5.094-256.538,46.686-330.189c-2.773,31.846-6.374,90.522-6.391,180.25
				C125.241,302.942,125.249,303.608,125.249,304.23z M208.799,70.391c-4.139-5.163-4.932-12.083-2.065-18.048
				c2.867-5.965,8.764-9.677,15.386-9.677h66.893c6.622,0,12.518,3.712,15.386,9.677c2.867,5.965,2.074,12.885-2.065,18.057
				l-20.471,25.591V96c-3.26,4.07-8.124,6.4-13.329,6.4H242.6c-5.205,0-10.069-2.33-13.329-6.4L208.799,70.391z M289.704,128v68.267
				c0,4.71-3.823,8.533-8.533,8.533c-4.719,0-8.533-3.823-8.533-8.533V128c0-4.71,3.814-8.533,8.533-8.533
				C285.881,119.467,289.704,123.29,289.704,128z M221.437,128c0-4.71,3.814-8.533,8.533-8.533c4.71,0,8.533,3.823,8.533,8.533
				v68.267c0,4.71-3.823,8.533-8.533,8.533c-4.719,0-8.533-3.823-8.533-8.533V128z M349.437,494.933H161.704v-27.426
				c0.017,0.009,0.034,0.017,0.06,0.026c2.304,1.178,4.702,2.167,7.1,3.157c1.101,0.452,2.167,0.998,3.277,1.408
				c1.271,0.469,2.594,0.785,3.883,1.195c5.666,1.818,11.46,3.226,17.399,3.925c3.618,0.427,7.27,0.648,10.948,0.648h103.262
				c10.982,0,21.734-1.92,31.898-5.641c3.379-1.229,6.69-2.645,9.907-4.25V494.933z M349.437,435.2c0,4.71-3.823,8.533-8.533,8.533
				h-85.333h-85.333c-4.719,0-8.533-3.823-8.533-8.533v-34.133c0-4.71,3.814-8.533,8.533-8.533c18.5,0,34.133-23.45,34.133-51.2
				c0-4.71,3.814-8.533,8.533-8.533h42.667h42.667c4.71,0,8.533,3.823,8.533,8.533c0,27.75,15.625,51.2,34.133,51.2
				c4.71,0,8.533,3.823,8.533,8.533V435.2z M426.493,494.933h-20.156l-10.598-25.6h31.206
				C426.835,480.35,426.647,489.097,426.493,494.933z M427.048,452.267h-38.374l-4.181-10.095
				c1.749-53.222,2.364-100.028,2.261-140.672c-0.043-89.079-3.618-147.482-6.383-179.268
				C421.885,196.685,427.176,366.857,427.048,452.267z"/>
			<path d="M178.766,408.653v18.014h68.267v-76.8h-26.001C218.233,379.742,200.876,403.686,178.766,408.653z"/>
			<path d="M290.101,349.864H264.1v76.8h68.267V408.65C310.256,403.684,292.9,379.748,290.101,349.864z"/>
			<polygon points="268.533,85.333 289.013,59.733 222.12,59.733 242.6,85.333 			"/>
		</g>
	</g>
</g>
</svg>