<?xml version="1.0" encoding="iso-8859-1"?>
<!-- Uploaded to: SVG Repo, www.svgrepo.com, Generator: SVG Repo Mixer Tools -->
<svg fill="#000000" height="800px" width="800px" version="1.1" id="Layer_1" xmlns="http://www.w3.org/2000/svg" xmlns:xlink="http://www.w3.org/1999/xlink" 
	 viewBox="0 0 512 512" xml:space="preserve">
<g>
	<g>
		<path d="M411.307,43.52c-2.56-2.56-5.12-4.267-7.68-5.12L346.453,1.707C343.893,0,341.333,0,339.627,0
			c-2.56,0.853-4.267,1.707-5.12,3.413c-1.707,2.56-2.56,5.12-3.413,7.68C326.827,20.48,318.293,25.6,307.2,25.6H204.8
			c-5.973,0-11.947-2.56-17.067-6.827c-2.56-1.707-4.267-4.267-5.973-6.827c-0.853-1.707-1.707-2.56-2.56-4.267
			s-0.853-3.413-1.707-4.267s-0.853-1.707-1.707-1.707C174.933,0.853,174.08,0,172.373,0c-2.56,0-4.267,0-6.827,0.853L108.373,38.4
			c-2.56,0.853-5.12,2.56-7.68,5.12C71.68,77.653,40.96,321.707,54.613,470.187c0,3.413,2.56,5.973,5.12,6.827v17.92
			c0,9.387,7.68,17.067,17.067,17.067h25.6c9.387,0,17.067-7.68,17.067-17.067V476.16c1.707-0.853,2.56-2.56,3.413-5.12
			c0,0,2.56-11.093,5.973-24.747l8.533,25.6c0.853,3.413,4.267,5.973,7.68,5.973v17.067c0,9.387,7.68,17.067,17.067,17.067h187.733
			c9.387,0,17.067-7.68,17.067-17.067v-17.067c3.413,0,6.827-2.56,7.68-5.973l8.533-25.6c3.413,12.8,5.973,24.747,5.973,24.747
			c0.853,1.707,1.707,4.267,3.413,5.12v18.773c0,9.387,7.68,17.067,17.067,17.067h25.6c9.387,0,17.067-7.68,17.067-17.067v-17.92
			c2.56-0.853,5.12-3.413,5.12-6.827C471.04,321.707,440.32,77.653,411.307,43.52z M102.4,494.933H76.8v-17.067h25.6V494.933z
			 M153.6,460.8h-2.56l-5.973-18.773c-0.853-7.68-8.533-75.093-9.387-168.96h59.733c-2.56,67.413-9.387,147.627-17.92,187.733H153.6
			z M194.56,461.653c10.24-46.933,16.213-132.267,17.92-196.267c0-0.853,0-1.707,0-3.413c0-3.413,0-7.68,0-11.093
			c0-1.707,0-3.413,0-5.12c0-5.12,0-10.24,0-15.36c0-71.68-8.533-139.947-23.04-190.293c5.973,1.707,10.24,2.56,15.36,2.56h102.4
			c5.12,0,9.387-0.853,13.653-1.707C307.2,91.307,298.667,158.72,298.667,230.4c0,5.12,0,10.24,0,15.36c0,1.707,0,3.413,0,5.12
			c0,3.413,0,7.68,0,11.093c0,0.853,0,1.707,0,3.413c1.707,63.147,7.68,149.333,17.92,196.267H194.56z M366.933,442.027
			L360.96,460.8h-2.56h-23.893c-9.387-40.107-16.213-120.32-17.92-187.733h59.733C375.467,366.08,367.787,433.493,366.933,442.027z
			 M435.2,494.933h-25.6v-17.067h25.6V494.933z"/>
	</g>
</g>
<g>
	<g>
		<path d="M281.6,51.2h-51.2c-9.387,0-17.067,7.68-17.067,17.067v25.6c0,9.387,7.68,17.067,17.067,17.067h51.2
			c9.387,0,17.067-7.68,17.067-17.067v-25.6C298.667,58.88,290.987,51.2,281.6,51.2z"/>
	</g>
</g>
<g>
	<g>
		<path d="M357.547,355.84l-8.533-17.92c-1.707-4.267-6.827-5.973-11.093-3.413c-4.267,1.707-5.973,6.827-3.413,11.093l8.533,17.067
			c1.707,3.413,4.267,5.12,7.68,5.12c1.707,0,2.56,0,3.413-0.853C358.4,365.227,360.107,360.107,357.547,355.84z"/>
	</g>
</g>
<g>
	<g>
		<path d="M174.933,333.653c-4.267-1.707-9.387,0-11.093,3.413l-8.533,17.067c-2.56,4.267-0.853,10.24,3.413,11.947
			c0.853,0.853,1.707,0.853,3.413,0.853c3.413,0,5.973-1.707,7.68-5.12l8.533-17.067C180.053,340.48,178.347,335.36,174.933,333.653
			z"/>
	</g>
</g>
</svg>